<svg width="64" height="64" viewBox="0 0 64 64" fill="none" xmlns="http://www.w3.org/2000/svg">
<path d="M28.3438 12.3901C28.8853 12.3901 29.3765 12.4898 29.7607 12.7466L29.7617 12.7456C29.7646 12.7474 29.7667 12.7507 29.7695 12.7524C29.7741 12.7555 29.7797 12.7571 29.7842 12.7603L29.7832 12.7612C30.1864 13.0195 30.4297 13.4536 30.5703 13.9575L30.6289 14.1655C30.7564 14.6736 30.8125 15.3285 30.8125 16.1089C30.8125 16.9892 30.74 17.7095 30.5752 18.2397C30.433 18.7613 30.1836 19.2125 29.7617 19.4722C29.3791 19.7075 28.8878 19.7964 28.3438 19.7964H27.1611L32.0645 27.4937L37.0215 19.7964H36.2812C35.7372 19.7964 35.2459 19.7075 34.8633 19.4722C34.4494 19.2174 34.1876 18.7763 34.0234 18.2603L34.0176 18.2407C33.8749 17.7176 33.8125 16.9977 33.8125 16.1089C33.8125 15.2201 33.8749 14.5002 34.0176 13.9771L34.0234 13.9575C34.1846 13.451 34.4401 13.018 34.8408 12.7612V12.7603C34.8445 12.7577 34.8488 12.756 34.8525 12.7534C34.8562 12.7511 34.8596 12.7479 34.8633 12.7456V12.7466C35.2476 12.4895 35.7393 12.3901 36.2812 12.3901H47.9688C48.5103 12.3901 49.0015 12.4898 49.3857 12.7466L49.3867 12.7456C49.3896 12.7474 49.3917 12.7507 49.3945 12.7524C49.3991 12.7555 49.4047 12.7571 49.4092 12.7603L49.4082 12.7612C49.8114 13.0195 50.0547 13.4536 50.1953 13.9575L50.2539 14.1655C50.3814 14.6736 50.4375 15.3285 50.4375 16.1089C50.4375 16.9892 50.365 17.7095 50.2002 18.2397C50.058 18.7613 49.8086 19.2125 49.3867 19.4722C49.0041 19.7075 48.5128 19.7964 47.9688 19.7964H46.8643L36.4062 35.7896V43.0776H42.0312C42.5726 43.0776 43.064 43.1766 43.4482 43.4331H43.4492C43.4519 43.4348 43.4544 43.4373 43.457 43.439C43.4617 43.4422 43.467 43.4445 43.4717 43.4478H43.4707C43.8742 43.706 44.1172 44.141 44.2578 44.645L44.3164 44.853C44.4439 45.3611 44.5 46.016 44.5 46.7964C44.5 47.6767 44.4275 48.397 44.2627 48.9272C44.1205 49.4488 43.8711 49.9 43.4492 50.1597C43.0666 50.395 42.5753 50.4839 42.0312 50.4839H21.9688C21.4247 50.4839 20.9334 50.395 20.5508 50.1597C20.1369 49.9049 19.8751 49.4638 19.7109 48.9478L19.7051 48.9282C19.5624 48.4051 19.5 47.6852 19.5 46.7964C19.5 45.9076 19.5624 45.1877 19.7051 44.6646L19.7109 44.645C19.8737 44.1334 20.1322 43.6956 20.54 43.4399C20.9259 43.1778 21.4221 43.0776 21.9688 43.0776H27.5938V35.7563L17.1982 19.7964H16.0312C15.4872 19.7964 14.9959 19.7075 14.6133 19.4722C14.1994 19.2174 13.9376 18.7763 13.7734 18.2603L13.7676 18.2407C13.6249 17.7176 13.5625 16.9977 13.5625 16.1089C13.5625 15.2201 13.6249 14.5002 13.7676 13.9771L13.7734 13.9575C13.9346 13.451 14.1901 13.018 14.5908 12.7612V12.7603C14.5945 12.7577 14.5988 12.756 14.6025 12.7534C14.6062 12.7511 14.6096 12.7479 14.6133 12.7456V12.7466C14.9976 12.4895 15.4893 12.3901 16.0312 12.3901H28.3438Z" fill="#0C77DD" stroke="#0C77DD"/>
</svg>
